<svg width="64" height="64" version="1.1" viewBox="0 0 64 64" xmlns="http://www.w3.org/2000/svg"><path d="m49.368 46.015c-3.7097-1.4337-5.829-5.3688-5.7454-9.2328-0.11686-4.8165 1.4034-9.4563 1.9475-14.204-1.4107-6.2976-2.0481-13.313-6.5297-18.333-1.5696-1.705-3.8291-3.2211-6.2072-2.2145-4.7425 1.4376-6.7877 6.4375-9.0048 10.401-1.1331 2.2943-2.6564 4.3855-4.2215 6.3657-3.4587 7.8723 0.7246 17.08-3.5017 24.747-1.5147 3.1947-6.0496 2.7441-8.0392 5.7343-2.3717 2.0669-1.432 5.7347 1.1321 7.1479 1.8559 1.3287 4.386 0.7107 6.5492 1.1199 5.6328 0.42978 11.366 0.97937 16.655 3.1041 5.3697-4.2567 12.58-4.0074 19.049-4.6331 2.7994 0.15859 5.8122-1.1661 6.3839-4.1974 1.0026-3.3624-1.5277-7.7515-5.3416-7.2898-0.66169 0.05673-1.3087 0.22986-1.9239 0.47565"/></svg>
