<?xml version="1.0" encoding="UTF-8"?>
<svg width="64" height="64" version="1.1" viewBox="0 0 64 64" xmlns="http://www.w3.org/2000/svg" xmlns:cc="http://creativecommons.org/ns#" xmlns:dc="http://purl.org/dc/elements/1.1/" xmlns:rdf="http://www.w3.org/1999/02/22-rdf-syntax-ns#"><metadata><rdf:RDF><cc:Work rdf:about=""><dc:format>image/svg+xml</dc:format><dc:type rdf:resource="http://purl.org/dc/dcmitype/StillImage"/><dc:title/></cc:Work></rdf:RDF></metadata><path d="m49.4 46c-3.71-1.43-5.83-5.37-5.75-9.23-0.117-4.82 1.4-9.46 1.95-14.2-1.41-6.3-2.05-13.3-6.53-18.3-1.57-1.7-3.83-3.22-6.21-2.21-4.74 1.44-6.79 6.44-9 10.4-1.13 2.29-2.66 4.39-4.22 6.37-3.46 7.87 0.725 17.1-3.5 24.7-1.51 3.19-6.05 2.74-8.04 5.73-2.37 2.07-1.43 5.73 1.13 7.15 1.86 1.33 4.39 0.711 6.55 1.12 5.63 0.43 11.4 0.979 16.7 3.1 5.37-4.26 12.6-4.01 19-4.63 2.8 0.159 5.81-1.17 6.38-4.2 1-3.36-1.53-7.75-5.34-7.29-0.662 0.0567-1.31 0.23-1.92 0.476" fill="#006680"/></svg>
