<?xml version="1.0" encoding="UTF-8"?>
<svg width="64" height="64" version="1.1" viewBox="0 0 64 64" xmlns="http://www.w3.org/2000/svg" xmlns:cc="http://creativecommons.org/ns#" xmlns:dc="http://purl.org/dc/elements/1.1/" xmlns:rdf="http://www.w3.org/1999/02/22-rdf-syntax-ns#"><metadata><rdf:RDF><cc:Work rdf:about=""><dc:format>image/svg+xml</dc:format><dc:type rdf:resource="http://purl.org/dc/dcmitype/StillImage"/><dc:title/></cc:Work></rdf:RDF></metadata><path d="m18 59c19 1 35-21 28-39-4-6-14-5-19-0.4-6 4-12 11-11 19 2 7 11 8 15 2 5-5-1-12 0.4-17 5-3 12 0.01 11 6-1 9-7 19-15 23-6 2-13 2-18-3-5-7-0.9-16 3-23 3-6 9-11 14-16 5-4 13-5 18-0.5 9 6 14 16 14 26-0.8 5-7 14-8e-3 16 4-5 4-12 5-18-0.4-10-4-21-13-27-6-6-16-6-23-1-14 8-24 22-25 37-0.9 8 5 15 13 16" fill="#504"/></svg>
