<svg width="64" height="64" version="1.1" viewBox="0 0 64 64" xmlns="http://www.w3.org/2000/svg"><path d="m17.886 58.794c19.297 1.3788 35.133-21.31 27.741-39.003-4.2755-6.4749-14.076-4.63-19.388-0.36867-6.1096 4.2207-11.867 11.182-10.991 19.027 1.4996 6.9942 11.434 8.0796 14.891 2.0224 5.114-5.3193-1.0819-12.248 0.35877-17.175 4.6783-3.293 12.435 0.01224 11.227 6.33-1.3267 9.2306-6.6761 18.589-15.21 22.891-5.6446 2.4502-13.212 1.5535-17.616-2.916-4.9066-7.0496-0.94237-16.218 2.8387-22.871 3.4488-6.4427 9.2442-11.04 14.166-16.224 5.1221-4.4661 12.969-4.5915 18.328-0.49855 8.535 5.6837 13.785 16.114 13.668 26.274-0.77058 4.631-6.9024 14.441-0.0079 15.798 4.2574-4.6649 4.3903-12.236 4.533-18.41-0.42817-10.291-4.3375-21.181-13.203-27.132-5.889-6.3107-16.068-5.806-22.916-1.3755-13.511 7.5014-23.688 21.629-25.342 37.11-0.8951 8.0955 4.8136 15.1 12.756 16.427"/></svg>
