<?xml version="1.0" encoding="UTF-8"?>
<svg width="64" height="64" version="1.1" viewBox="0 0 64 64" xmlns="http://www.w3.org/2000/svg" xmlns:cc="http://creativecommons.org/ns#" xmlns:dc="http://purl.org/dc/elements/1.1/" xmlns:rdf="http://www.w3.org/1999/02/22-rdf-syntax-ns#"><metadata><rdf:RDF><cc:Work rdf:about=""><dc:format>image/svg+xml</dc:format><dc:type rdf:resource="http://purl.org/dc/dcmitype/StillImage"/><dc:title/></cc:Work></rdf:RDF></metadata><path d="m25 55c2-3 4-6 7-9 9-10 20-18 24-31 2-8-9-13-15-8-7 5-10 13-16 19-5 6-12 11-17 17-2 7 6 11 11 12 2 0.4 3 0.8 5 1"/><g transform="matrix(2 0 0 -2 -597 724)" fill="#fff"><path d="m309 338c3-0.3 2 5-0.5 4-2-0.5-2-3-0.5-4m4 9c-1-3 3-4 4-2 0.4 1-1 4-4 2m5 2c2-2 5 3 2 4-2 0.6-4-1-3-3" fill="#fff"/></g></svg>
