<svg width="64" height="64" version="1.1" viewBox="0 0 64 64" xmlns="http://www.w3.org/2000/svg"><path d="m24.839 54.911c1.9709-3.1312 4.2755-6.0228 6.735-8.8014 8.8139-9.9573 19.617-18.462 24.179-31.329 2.1493-8.055-9.1398-12.888-14.905-7.9529-6.6538 4.8932-9.8294 12.973-15.67 18.713-5.1909 6.2026-11.66 11.254-17.365 16.843-2.4631 6.6272 5.6977 10.709 11.076 11.466 1.6792 0.41688 3.3684 0.80607 5.0105 1.3569"/><g transform="matrix(2.0199 0 0 -2.0199 -601.96 728.19)" fill="#fff"><path d="m309.3 338.02c2.7427-0.28157 1.9838 4.518-0.50629 3.9667-1.7192-0.49994-1.789-3.0179-0.5299-4.0507m4.2754 8.5913c-1.3284-2.8411 2.9381-4.2538 3.6701-1.7195 0.4043 1.3241-1.4408 3.5628-3.6701 1.7195m4.7599 2.0401c2.1554-1.7991 4.6967 2.6043 2.1811 3.7028-1.7185 0.61005-3.5061-1.4425-2.7614-3.083" fill="#fff"/></g></svg>
