<svg width="64" height="64" version="1.1" viewBox="0 0 64 64" xmlns="http://www.w3.org/2000/svg"><path d="m38.15 3.3621c-11.568 6.8424-16.439 20.023-21.994 31.528-2.5243 5.3614-5.6544 10.439-9.3663 15.045-1.7758 3.2109-2.869 9.3345 1.2912 11.038 4.156-0.67871 6.8697-4.8836 11.441-4.93 7.6611-1.8322 16.108-2.8888 22.055-8.5919 7.8111-4.7842 15.612-11.143 18.123-20.357 1.8781-6.775 1.1261-14.622-3.8301-19.956-3.7997-4.527-10.033-6.4677-15.739-4.9579m-8.8326 22.095c4.0503 4.287 10.233 6.7087 12.744 12.32 0.8094 4.6853-4.8122 6.0575-7.6469 8.2925-4.9291 3.3558-10.846 7.149-17.074 5.697-7.0936-3.1002-1.5352-10.426 1.762-14.249 3.7037-4.627 7.9819-9.3613 8.7273-15.5"/></svg>
