<?xml version="1.0" encoding="UTF-8"?>
<svg width="64" height="64" version="1.1" viewBox="0 0 64 64" xmlns="http://www.w3.org/2000/svg" xmlns:cc="http://creativecommons.org/ns#" xmlns:dc="http://purl.org/dc/elements/1.1/" xmlns:rdf="http://www.w3.org/1999/02/22-rdf-syntax-ns#"><metadata><rdf:RDF><cc:Work rdf:about=""><dc:format>image/svg+xml</dc:format><dc:type rdf:resource="http://purl.org/dc/dcmitype/StillImage"/><dc:title/></cc:Work></rdf:RDF></metadata><path d="m38.2 3.36c-11.6 6.84-16.4 20-22 31.5-2.52 5.36-5.65 10.4-9.37 15-1.78 3.21-2.87 9.33 1.29 11 4.16-0.679 6.87-4.88 11.4-4.93 7.66-1.83 16.1-2.89 22.1-8.59 7.81-4.78 15.6-11.1 18.1-20.4 1.88-6.78 1.13-14.6-3.83-20-3.8-4.53-10-6.47-15.7-4.96m-8.83 22.1c4.05 4.29 10.2 6.71 12.7 12.3 0.809 4.69-4.81 6.06-7.65 8.29-4.93 3.36-10.8 7.15-17.1 5.7-7.09-3.1-1.54-10.4 1.76-14.2 3.7-4.63 7.98-9.36 8.73-15.5" fill="#916f6f"/></svg>
