<?xml version="1.0" encoding="UTF-8"?>
<svg width="64" height="64" version="1.1" viewBox="0 0 64 64" xmlns="http://www.w3.org/2000/svg" xmlns:cc="http://creativecommons.org/ns#" xmlns:dc="http://purl.org/dc/elements/1.1/" xmlns:rdf="http://www.w3.org/1999/02/22-rdf-syntax-ns#"><metadata><rdf:RDF><cc:Work rdf:about=""><dc:format>image/svg+xml</dc:format><dc:type rdf:resource="http://purl.org/dc/dcmitype/StillImage"/><dc:title/></cc:Work></rdf:RDF></metadata><path d="m21 43.8c-5.32-3.11-15.5-1.63-15.9 5.69 1.27 9.53 15.7 12 21.1 4.53 4.47-6.21 0.734-13.8-1.15-20.2-1.69-6.25-1.06-14.4 5-18.1 6.06-4.29 13.7 1.24 15.1 7.59 1.53 5.74 0.822 11.8 0.066 17.7-1.64 5.6-10.4 7.44-9.03 14.3 1.15 7.31 11.4 9.19 16.1 4.11 6.24-5.38 1.94-13.2-0.531-19.2-1.56-5.54 0.609-11.3 0.474-16.9 0.154-6.29-0.0198-13.7-4.81-18.4-6.54-4.76-15-1.93-22.4-1.22-4.93 0.674-11.4 4.79-9.65 10.5 0.439 1.46 1.27 2.79 2.34 3.87" fill="#f06"/></svg>
