<svg width="64" height="64" version="1.1" viewBox="0 0 64 64" xmlns="http://www.w3.org/2000/svg"><path d="m20.972 43.755c-5.3156-3.1133-15.455-1.6278-15.895 5.6934 1.2682 9.5332 15.712 11.989 21.132 4.5318 4.47-6.2079 0.734-13.768-1.1521-20.179-1.6936-6.2526-1.0623-14.357 5.0047-18.076 6.055-4.2874 13.685 1.238 15.07 7.5897 1.529 5.745 0.8222 11.849 0.06595 17.669-1.6432 5.595-10.366 7.4378-9.0278 14.278 1.1481 7.3053 11.35 9.1873 16.067 4.109 6.2386-5.3751 1.9407-13.16-0.53068-19.186-1.565-5.5436 0.60908-11.255 0.47427-16.902 0.15368-6.2905-0.019769-13.735-4.8127-18.412-6.5424-4.7594-15.022-1.9251-22.359-1.2232-4.9268 0.67419-11.369 4.7938-9.6549 10.528 0.43877 1.4585 1.2732 2.7854 2.3411 3.8655"/></svg>
