<svg width="64" height="64" version="1.1" viewBox="0 0 64 64" xmlns="http://www.w3.org/2000/svg"><path d="m39.891 13.58c2.0618 7.6067 14.114 7.964 16.893 0.67647 2.6604-4.456 1.7558-12.099-4.3339-12.95-6.0347-1.2774-10.851 3.4497-12.674 8.7668m-13.534 3.7295c4.1462-4.8682-0.62486-12.494-6.5731-12.528-6.3041-0.27568-13.761 4.0995-13.324 11.173-0.42111 7.5305 9.2106 10.215 14.392 5.9995 1.3512-0.85518 2.5698-1.9242 3.5768-3.1675m12.747 13.627c4.2346-4.5229-4.148-15.279-7.7907-8.9285-0.01348 4.7816 1.7303 9.4955 0.58322 14.368-0.29786 3.2094 0.87471 10.619 5.6182 8.6397m0.53536 11.481c-5.9271 4.7717-13.995 0.02012-17.823-5.1986-0.82498-5.4791-10.42-7.209-7.4383-0.06391 2.5351 5.3036 6.67 10.15 12.636 11.543 12.551 3.5376 26.101-4.4647 31.805-15.613 2.6534-3.5488 3.8629-13.579-2.9337-9.0762-4.2554 3.8298-1.8295 12.527-8.3907 14.445"/></svg>
