<?xml version="1.0" encoding="UTF-8"?>
<svg width="64" height="64" version="1.1" viewBox="0 0 64 64" xmlns="http://www.w3.org/2000/svg" xmlns:cc="http://creativecommons.org/ns#" xmlns:dc="http://purl.org/dc/elements/1.1/" xmlns:rdf="http://www.w3.org/1999/02/22-rdf-syntax-ns#"><metadata><rdf:RDF><cc:Work rdf:about=""><dc:format>image/svg+xml</dc:format><dc:type rdf:resource="http://purl.org/dc/dcmitype/StillImage"/><dc:title/></cc:Work></rdf:RDF></metadata><path d="m40 14c2 6 11 7 15 3 5-3 5-12-1-15-5-3-12 0.2-14 6-0.2 0.6-0.4 1-0.6 2m-14 4c4-5-0.4-11-5-13-6-2-14 3-14 10-0.7 5 3 9 8 9 4 0.2 8-2 10-5m13 14c4-3 0.2-9-4-10-5 0.3-3 5-3 8-0.1 5-0.6 11 3 15 0.8 0.9 2 0.9 3 0.7m0.5 12c-5 4-12 1-16-3-2-2-5-8-8-4-2 4 1 8 4 10 8 6 18 6 26 1 6-3 10-9 14-14 2-3 0.4-9-4-8-4 1-3 6-4 10-0.6 2-2 4-4 4" fill="#330080"/></svg>
