<svg width="64" height="64" version="1.1" viewBox="0 0 64 64" xmlns="http://www.w3.org/2000/svg"><path d="m47.921 15.844c2.9841 7.5081-3.4143 19.251 2.5833 24.252 6.6641-3.6961 2.8645-13.813 1.5583-19.743-0.69891-1.6253-1.62-3.1605-2.7714-4.5065m-11.05 0.11633c-2.212 9.9289 2.1146 20.402-1.7057 30.098 8.4873 2.1142 9.3109-10.143 8.0139-15.927-0.44949-4.8306-0.80572-10.398-4.7398-13.818m-15.351-0.23023c-9.3792 1.4474-21.723 6.1356-21.849 17.375 0.42922 9.4206 10.272 9.1851 16.973 8.7369 7.9362 0.4999 1.6491 18.61 10.476 10.198 0.24761-6.6542-2.3382-13.786-1.0609-20.82 0.14978-7.3045 3.376-14.12 5.2152-20.881-0.05915-7.1152-6.1026-1.0002-7.8224 1.5383m28.667 9.2485c-0.13981 4.8956-0.7726 18.193 5.9926 15.574 1.7493-4.189 0.69129-20.343-5.9167-16.245"/></svg>
