<?xml version="1.0" encoding="UTF-8"?>
<svg width="64" height="64" version="1.1" viewBox="0 0 64 64" xmlns="http://www.w3.org/2000/svg" xmlns:cc="http://creativecommons.org/ns#" xmlns:dc="http://purl.org/dc/elements/1.1/" xmlns:rdf="http://www.w3.org/1999/02/22-rdf-syntax-ns#"><metadata><rdf:RDF><cc:Work rdf:about=""><dc:format>image/svg+xml</dc:format><dc:type rdf:resource="http://purl.org/dc/dcmitype/StillImage"/><dc:title/></cc:Work></rdf:RDF></metadata><path d="m47.9 15.8c2.98 7.51-3.41 19.3 2.58 24.3 6.66-3.7 2.86-13.8 1.56-19.7-0.699-1.63-1.62-3.16-2.77-4.51m-11 0.116c-2.21 9.93 2.11 20.4-1.71 30.1 8.49 2.11 9.31-10.1 8.01-15.9-0.449-4.83-0.806-10.4-4.74-13.8m-15.4-0.23c-9.38 1.45-21.7 6.14-21.8 17.4 0.429 9.42 10.3 9.19 17 8.74 7.94 0.5 1.65 18.6 10.5 10.2 0.248-6.65-2.34-13.8-1.06-20.8 0.15-7.3 3.38-14.1 5.22-20.9-0.0592-7.12-6.1-1-7.82 1.54m28.7 9.25c-0.14 4.9-0.773 18.2 5.99 15.6 1.75-4.19 0.691-20.3-5.92-16.2" fill="#a00"/></svg>
