<svg width="64" height="64" version="1.1" viewBox="0 0 64 64" xmlns="http://www.w3.org/2000/svg"><path d="m58.043 52.653c-0.81754 9.2666 10.284 3.9839 5.1555-2.9132-1.2538-7.7908 0.89679-26.501-8.9982-25.874-1.5001 4.6043-3.9015 19.771-5.529 6.4425-0.61364-7.519 2.5014-23.212-5.044-25.114-7.7515 8.6077-0.11131 23.245-8.4483 31.318-7.9385-7.1645 0.83932-22.759-6.8835-31.456-12.114-4.0355-4.7642 17.947-6.3789 25.391 1.4394 7.3441-6.804 14.002-6.3375 3.1896-1.3037-7.6018 2.9564-27.51-8.1924-25.042-2.9343 6.58-10.902 23.711-1.742 25.581 3.34-7.9773 5.5869-5.8554 5.8224 1.6611 0.56917 6.8017 3.4616 31.846 11.811 18.593 0.58423-5.2521-0.20247-27.215 5.9989-14.084-0.72403 6.509 6.433 23.389 11.046 10.423-1.47-5.2155 2.2597-21.726 4.5932-8.7705-2.3186 7.219 6.9025 21.604 9.4505 8.2327 0.33184-3.8946 2.2266-12.405 3.4915-3.5371"/></svg>
