<?xml version="1.0" encoding="UTF-8"?>
<svg width="64" height="64" version="1.1" viewBox="0 0 64 64" xmlns="http://www.w3.org/2000/svg" xmlns:cc="http://creativecommons.org/ns#" xmlns:dc="http://purl.org/dc/elements/1.1/" xmlns:rdf="http://www.w3.org/1999/02/22-rdf-syntax-ns#"><metadata><rdf:RDF><cc:Work rdf:about=""><dc:format>image/svg+xml</dc:format><dc:type rdf:resource="http://purl.org/dc/dcmitype/StillImage"/><dc:title/></cc:Work></rdf:RDF></metadata><path d="m58 53c-0.8 9 10 4 5-3-1-8 0.9-26-9-26-2 5-4 20-6 6-0.6-8 2-23-5-25-8 9-0.1 23-8 31-8-7 0.8-23-7-32-12-4-5 18-6 25 1 7-7 14-6 3-1-8 3-28-8-25-3 7-11 24-2 26 3-8 6-6 6 2 0.6 7 3 32 12 19 0.6-5-0.2-27 6-14-0.7 7 6 23 11 10-1-5 2-22 5-9-2 7 7 22 9 8 0.3-4 2-12 3-4" fill="#000080"/></svg>
